<?xml version="1.0" standalone="no"?>
<!DOCTYPE svg PUBLIC "-//W3C//DTD SVG 20010904//EN"
 "http://www.w3.org/TR/2001/REC-SVG-20010904/DTD/svg10.dtd">
<svg version="1.0" xmlns="http://www.w3.org/2000/svg"
 width="700.000000pt" height="700.000000pt" viewBox="0 0 700.000000 700.000000"
 preserveAspectRatio="xMidYMid meet">
<metadata>
Created by potrace 1.14, written by Peter Selinger 2001-2017
</metadata>
<g transform="translate(0.000000,700.000000) scale(0.100000,-0.100000)"
fill="#000000" stroke="none">
<path d="M3278 6995 c-1 -1 -42 -5 -89 -9 -47 -4 -95 -8 -105 -10 -10 -2 -45
-7 -78 -11 -101 -12 -214 -35 -381 -76 -296 -75 -597 -198 -880 -362 -103 -60
-265 -165 -315 -204 -8 -6 -51 -40 -95 -74 -424 -330 -814 -826 -1020 -1299
-25 -58 -50 -114 -55 -125 -45 -93 -150 -427 -176 -560 -2 -11 -10 -54 -19
-95 -29 -147 -35 -192 -52 -370 -15 -162 -8 -591 12 -711 2 -13 6 -46 9 -74
21 -182 109 -546 165 -680 5 -11 30 -75 55 -142 54 -140 181 -394 249 -501 26
-40 47 -75 47 -78 0 -2 4 -10 10 -17 5 -7 46 -64 91 -126 323 -458 755 -830
1269 -1093 334 -171 723 -294 1089 -344 25 -3 57 -8 71 -10 163 -25 682 -25
842 1 13 2 46 7 73 10 71 10 87 13 115 18 14 3 43 8 65 12 115 21 314 74 455
122 557 188 1090 542 1480 982 36 41 70 79 75 85 6 6 26 31 45 56 19 25 37 47
41 50 14 12 172 243 224 328 186 308 354 725 421 1047 16 75 54 300 60 350 4
33 9 76 11 95 8 71 10 517 3 595 -17 172 -22 220 -25 225 -2 3 -6 30 -10 60
-3 30 -10 71 -15 90 -5 19 -12 51 -15 70 -13 75 -67 275 -106 392 -203 604
-581 1160 -1064 1563 -32 28 -70 59 -83 70 -120 102 -399 280 -596 379 -313
159 -718 291 -1016 331 -19 3 -46 7 -60 10 -13 2 -54 7 -90 11 -36 3 -78 8
-95 11 -33 5 -531 13 -537 8z m462 -530 c142 -12 308 -36 380 -55 19 -5 49
-11 65 -14 46 -8 228 -63 325 -98 413 -149 766 -373 1081 -688 168 -168 266
-284 380 -455 64 -96 173 -280 174 -295 1 -3 17 -36 37 -75 101 -199 211 -537
248 -765 5 -36 12 -76 14 -90 34 -199 39 -566 11 -775 -2 -16 -7 -52 -10 -78
-3 -26 -10 -71 -16 -100 -6 -29 -12 -63 -15 -77 -58 -310 -207 -680 -397 -985
-232 -372 -599 -734 -969 -956 -82 -49 -315 -168 -393 -201 -180 -76 -447
-156 -600 -182 -77 -13 -165 -25 -220 -31 -33 -3 -80 -8 -105 -11 -111 -13
-454 -6 -575 11 -16 3 -46 7 -65 9 -163 19 -451 90 -595 146 -478 187 -776
378 -1106 709 -131 131 -213 228 -316 371 -270 376 -461 858 -519 1315 -3 22
-7 51 -9 64 -22 137 -23 572 -1 686 2 11 7 43 10 70 27 208 97 472 181 681 64
158 180 394 198 402 4 2 7 8 7 13 0 12 59 104 133 209 191 269 468 542 742
731 262 182 600 339 900 419 199 53 378 84 570 96 55 4 101 7 102 8 5 4 286
-3 353 -9z"/>
<path d="M3482 5873 c-6 -32 -20 -101 -31 -153 -263 -1227 -321 -1493 -325
-1497 -3 -4 -917 673 -991 734 -25 21 -330 249 -343 257 -16 9 -10 -4 14 -34
7 -8 98 -128 201 -266 103 -138 198 -264 210 -280 12 -16 70 -94 129 -174 60
-80 111 -147 114 -150 3 -3 17 -21 30 -40 14 -19 30 -42 37 -50 7 -8 86 -114
176 -235 182 -244 178 -229 71 -240 -33 -3 -84 -10 -114 -15 -30 -5 -75 -11
-100 -14 -25 -4 -54 -8 -66 -10 -12 -2 -45 -7 -75 -11 -30 -3 -83 -11 -119
-16 -86 -14 -95 -15 -165 -24 -33 -4 -69 -9 -80 -11 -11 -3 -38 -7 -60 -9 -22
-3 -51 -7 -65 -10 -14 -2 -43 -7 -65 -10 -57 -7 -675 -95 -705 -100 -14 -2
-39 -5 -57 -7 -32 -2 -37 -17 -5 -16 9 0 51 -5 92 -11 41 -6 93 -14 115 -16
22 -3 51 -8 65 -10 14 -3 45 -7 70 -10 25 -3 52 -8 60 -10 8 -2 44 -7 79 -10
36 -3 67 -8 70 -10 3 -1 35 -6 71 -10 36 -4 67 -8 70 -10 3 -2 32 -6 65 -9 33
-4 67 -9 75 -11 8 -2 38 -6 65 -10 28 -3 57 -8 65 -10 8 -2 42 -7 75 -10 33
-3 67 -8 75 -10 8 -2 35 -6 60 -9 25 -4 56 -8 70 -11 14 -2 45 -7 70 -9 25 -3
74 -9 110 -15 36 -6 88 -13 115 -17 28 -3 57 -7 65 -9 8 -1 40 -6 70 -10 66
-9 92 -13 96 -17 2 -2 -726 -979 -789 -1058 -7 -9 -66 -87 -131 -175 -66 -88
-131 -176 -145 -194 -31 -42 -24 -38 89 48 47 36 97 74 111 84 27 20 201 149
239 178 14 10 57 42 95 71 39 29 75 56 80 61 57 48 707 528 711 524 4 -3 63
-267 80 -355 3 -13 16 -76 30 -140 14 -64 29 -135 34 -157 4 -22 20 -96 35
-165 15 -69 31 -143 35 -165 5 -22 20 -92 34 -155 13 -63 46 -217 73 -342 26
-126 51 -228 55 -228 5 0 8 7 8 17 0 9 25 129 55 267 30 138 56 262 59 276 2
14 9 45 15 70 9 39 66 301 77 354 2 10 22 105 45 210 22 105 43 200 45 211 2
11 18 86 35 166 l31 147 122 -91 c66 -50 126 -95 131 -99 6 -5 64 -49 130 -98
66 -49 125 -92 130 -97 6 -4 62 -46 125 -93 63 -46 117 -87 120 -90 3 -3 21
-17 40 -30 19 -13 37 -27 40 -30 3 -3 121 -92 263 -198 l258 -193 -70 93 c-38
51 -285 381 -549 733 -264 352 -479 641 -478 642 3 3 57 12 141 23 86 12 108
15 170 25 22 3 56 8 75 11 19 2 49 7 65 9 17 2 52 7 79 11 27 3 58 7 69 10 20
3 141 20 209 29 18 2 51 7 73 10 22 4 54 9 70 11 17 2 41 6 55 9 14 2 50 7 80
10 30 3 62 8 70 10 8 2 35 6 60 9 25 3 56 8 70 10 14 3 48 7 75 11 28 3 77 10
110 15 53 8 132 19 175 25 104 13 131 18 135 25 2 3 -1 7 -8 7 -10 0 -46 5
-134 18 -13 2 -40 6 -60 9 -21 4 -56 9 -77 11 -22 3 -51 7 -65 10 -14 2 -44 6
-66 9 -49 7 -250 36 -285 41 -14 2 -61 9 -106 15 -44 6 -90 12 -101 14 -11 3
-44 7 -74 11 -30 3 -65 8 -79 10 -41 7 -79 13 -195 29 -174 24 -188 26 -223
32 -17 3 -49 7 -70 10 -79 10 -235 34 -238 37 -2 1 19 31 45 65 26 34 55 72
65 84 20 29 467 626 763 1021 l223 298 -257 -194 c-142 -106 -448 -336 -680
-510 -233 -174 -423 -314 -423 -311 0 4 -16 82 -36 173 -20 91 -38 175 -40
186 -2 11 -12 61 -23 110 -41 189 -213 993 -228 1060 -8 39 -17 81 -20 95 -3
14 -6 32 -8 40 -2 8 -4 23 -4 33 -2 37 -18 14 -29 -40z"/>
</g>
</svg>
